<svg xmlns="http://www.w3.org/2000/svg" width="839" height="111" viewBox="0 0 839 111" fill="none"><path d="M323.541 2.32642V96.3867C323.541 104.151 317.241 110.451 309.477 110.451H288.926C284.146 110.451 279.795 107.499 277.797 102.897L243.748 24.6728H241.176V110.451H217.471V16.3991C217.463 8.63484 223.763 2.32642 231.527 2.32642H251.844C256.624 2.32642 260.975 5.27844 262.972 9.86418L293.237 79.3782L297.022 88.0887H299.553V2.32642H323.541Z" fill="#EFF6F9"></path><path d="M522.038 2.32642V96.3867C522.038 104.151 515.738 110.451 507.973 110.451H487.423C482.643 110.451 478.292 107.499 476.294 102.897L442.245 24.6728H439.673V110.451H415.968V16.3991C415.968 8.63484 422.268 2.32642 430.032 2.32642H450.348C455.128 2.32642 459.48 5.27844 461.477 9.86418L491.741 79.3782L495.526 88.0887H498.058V2.32642H522.046H522.038Z" fill="#EFF6F9"></path><path d="M193.094 2.32642H119.488C111.723 2.32642 105.423 8.62675 105.423 16.391V96.3867C105.423 104.151 111.723 110.451 119.488 110.451H193.094C200.874 110.451 207.158 104.151 207.158 96.3867V16.3991C207.167 8.63484 200.874 2.32642 193.094 2.32642ZM184.432 88.0887H130.382C129.993 88.0887 129.678 87.7732 129.678 87.385V25.3845C129.678 24.9963 129.993 24.6809 130.382 24.6809H184.432C184.82 24.6809 185.136 24.9963 185.136 25.3845V87.385C185.136 87.7732 184.82 88.0887 184.432 88.0887Z" fill="#EFF6F9"></path><path d="M24.983 2.32642H95.1197V24.6809H26.3902C25.2256 24.6809 24.2794 25.6272 24.2794 26.7918L24.2632 87.3769C24.2632 87.7651 24.5786 88.0806 24.9668 88.0806H95.1197V110.435L14.0726 110.451C6.30034 110.451 0 104.151 0 96.3867V25.3926C0 25.0044 0.315421 24.689 0.703632 24.689H22.1604C23.325 24.689 24.2713 23.7427 24.2713 22.5781V3.03814C24.2713 2.64993 24.5867 2.3345 24.9749 2.3345L24.983 2.32642Z" fill="#EFF6F9"></path><path d="M604.501 110.459H546.407C538.634 110.459 532.342 104.159 532.342 96.3867V16.3991C532.342 8.62675 538.634 2.32642 546.407 2.32642H626.184V24.689H556.597V88.0806H603.094C604.258 88.0806 605.204 87.1343 605.204 85.9697V67.1738C605.204 66.7856 604.889 66.4702 604.501 66.4702H583.473V44.1076H613.381C621.153 44.1076 627.446 50.4079 627.446 58.1722V87.3769C627.446 87.7651 627.13 88.0806 626.742 88.0806H607.315C606.151 88.0806 605.204 89.0268 605.204 90.1915V109.756C605.204 110.144 604.889 110.459 604.501 110.459Z" fill="#EFF6F9"></path><path d="M727.07 88.0967V110.451H651.814C644.042 110.451 637.749 104.151 637.749 96.3866V16.4071C637.741 8.63481 644.042 2.33447 651.806 2.33447H656.666H727.054V24.6728H662.441C662.053 24.6728 661.738 24.9882 661.738 25.3764V43.4039C661.738 43.7922 662.053 44.1076 662.441 44.1076H713.531V66.4782H662.441C662.053 66.4782 661.738 66.7936 661.738 67.1819V87.4012C661.738 87.7894 662.053 88.1048 662.441 88.1048H727.07V88.0967Z" fill="#EFF6F9"></path><path d="M391.963 44.1077H333.837V66.4783H391.963V44.1077Z" fill="#EFF6F9"></path><path d="M405.672 2.32642H333.837V24.6647H405.672V2.32642Z" fill="#EFF6F9"></path><path d="M405.68 88.0886V110.443H326.987C329.769 109.384 332.333 105.267 333.093 102.258C333.586 100.39 333.837 98.4166 333.837 96.3947V88.0967H405.688L405.68 88.0886Z" fill="#EFF6F9"></path><path d="M768.8 57.0565C766.424 57.0565 763.851 57.0002 761.095 56.8877C758.34 56.7753 755.64 56.6487 752.997 56.48C750.353 56.3113 747.949 56.1285 745.784 55.9176V50.2372C748.104 50.406 750.55 50.5606 753.123 50.7294C755.682 50.8981 758.185 51.0246 760.617 51.1371C763.05 51.2496 765.131 51.3058 766.86 51.3058C770.052 51.3058 772.583 51.2215 774.481 51.0668C776.365 50.8981 777.996 50.5606 779.346 50.0123C780.527 49.5202 781.398 48.8312 781.933 47.9454C782.467 47.0596 782.819 46.0051 782.987 44.7819C783.156 43.5586 783.226 42.3073 783.226 41.0137C783.226 39.1718 783.17 37.6955 783.058 36.5566C782.945 35.4177 782.622 34.5601 782.087 33.9695C781.553 33.379 780.695 32.915 779.528 32.5916C778.361 32.2683 776.759 32.0292 774.706 31.8605L758.171 30.3139C754.979 29.9905 752.434 29.4984 750.508 28.8094C748.596 28.1345 747.162 27.2066 746.206 26.0114C745.264 24.8304 744.631 23.3681 744.336 21.6387C744.04 19.9093 743.886 17.8565 743.886 15.4803C743.886 11.8668 744.406 9.01261 745.46 6.9317C746.515 4.85078 748.019 3.31822 750.002 2.30588C751.97 1.3076 754.375 0.674892 757.215 0.407747C760.055 0.140602 763.219 0 766.734 0C769.166 0 771.627 0.056241 774.115 0.168723C776.604 0.281205 778.966 0.435867 781.202 0.660831C783.437 0.871735 785.321 1.0967 786.84 1.3076V6.90358C785.167 6.63643 783.212 6.41147 781.005 6.25681C778.783 6.08808 776.52 5.9756 774.2 5.89124C771.88 5.80688 769.686 5.7647 767.634 5.7647C764.175 5.7647 761.391 5.87718 759.282 6.08808C757.173 6.29899 755.443 6.73486 754.093 7.38163C752.631 8.0284 751.717 9.04073 751.338 10.4186C750.958 11.7965 750.775 13.4275 750.775 15.3257C750.775 17.3785 750.93 18.9954 751.225 20.1905C751.52 21.3856 752.252 22.2292 753.419 22.7495C754.586 23.2697 756.399 23.6493 758.888 23.9305L775.423 25.3928C777.687 25.6037 779.725 25.899 781.497 26.2505C783.268 26.602 784.773 27.1644 785.996 27.9518C787.205 28.7391 788.147 29.9343 788.794 31.5652C789.118 32.3245 789.371 33.1681 789.567 34.1242C789.75 35.0662 789.891 36.0786 789.975 37.1612C790.06 38.2439 790.102 39.4249 790.102 40.7325C790.102 44.0789 789.722 46.8065 788.963 48.9156C788.204 51.0246 787.135 52.6556 785.757 53.8226C784.379 54.9896 782.804 55.791 781.019 56.255C779.233 56.719 777.293 56.9721 775.184 57.0283C773.075 57.0846 770.938 57.1127 768.786 57.1127L768.8 57.0565Z" fill="#2A91DD"></path><path d="M822.37 57.0565C817.884 57.0565 814.102 56.8456 811.023 56.4097C807.944 55.9738 805.427 55.2005 803.487 54.0616C801.546 52.9227 800.056 51.2918 799.029 49.1546C798.003 47.0174 797.3 44.2616 796.92 40.8872C796.541 37.5127 796.358 33.3931 796.358 28.5282C796.358 23.6634 796.541 19.5437 796.92 16.1693C797.3 12.7948 798.003 10.0531 799.029 7.94404C800.056 5.835 801.546 4.20401 803.487 3.03701C805.427 1.87001 807.944 1.08264 811.023 0.646771C814.102 0.210904 817.884 0 822.37 0C824.099 0 825.899 0.056241 827.755 0.168723C829.625 0.281205 831.41 0.407747 833.14 0.57647C834.869 0.745193 836.388 0.956096 837.681 1.22324V6.65049C836.275 6.43959 834.771 6.27087 833.182 6.15839C831.593 6.0459 830.018 5.96154 828.486 5.87718C826.953 5.79282 825.561 5.75064 824.31 5.75064C820.415 5.75064 817.195 5.87718 814.622 6.1162C812.049 6.35523 809.997 6.88952 808.464 7.69095C806.931 8.49239 805.778 9.71563 805.019 11.3326C804.26 12.9495 803.768 15.1569 803.515 17.9409C803.276 20.7248 803.149 24.2539 803.149 28.5142C803.149 32.7744 803.276 36.3035 803.515 39.0875C803.754 41.8714 804.26 44.0648 805.019 45.6958C805.778 47.3127 806.917 48.536 808.464 49.3374C810.011 50.1529 812.063 50.6731 814.622 50.9121C817.181 51.1512 820.415 51.2777 824.31 51.2777C826.531 51.2777 828.908 51.1933 831.438 51.0387C833.983 50.87 836.191 50.659 838.089 50.3919V56.0722C836.739 56.241 835.15 56.3816 833.308 56.5222C831.466 56.6487 829.611 56.7753 827.712 56.8877C825.814 57.0002 824.043 57.0565 822.37 57.0565Z" fill="#2A91DD"></path></svg>